<svg height="495pt" viewBox="0 0 495 495.56595" width="495pt" xmlns="http://www.w3.org/2000/svg"><path d="m482.816406 63.222656-50.078125-50.085937c-17.5625-17.515625-45.988281-17.515625-63.550781 0l-117.761719 117.757812c-17.523437 17.5625-17.523437 45.992188 0 63.554688l7.832031 7.832031-56.6875 56.6875-8.472656-8.480469c-17.210937-17.160156-45.0625-17.160156-62.273437 0l-118.398438 118.398438c-17.523437 17.5625-17.523437 45.992187 0 63.554687l50.242188 50.246094c17.203125 17.171875 45.0625 17.171875 62.269531 0l119.039062-119.039062c8.265626-8.253907 12.910157-19.453126 12.910157-31.136719 0-11.679688-4.644531-22.882813-12.910157-31.136719l-8.46875-8.46875 56.6875-56.691406 7.832032 7.839844c17.558594 17.519531 45.988281 17.519531 63.550781 0l118.238281-118.238282c17.246094-17.300781 17.246094-45.292968 0-62.59375zm-195.253906 99.457032 113.398438-113.40625 45.25 45.246093-113.410157 113.410157-5.65625-5.65625 14.792969-14.785157c9.242188-9.394531 9.183594-24.484375-.132812-33.800781-9.316407-9.320312-24.40625-9.382812-33.800782-.144531l-14.792968 14.792969zm31.75 2.175781c2.011719-2.078125 4.984375-2.914063 7.78125-2.179688 2.796875.730469 4.980469 2.914063 5.714844 5.710938.730468 2.796875-.101563 5.773437-2.183594 7.78125l-154.175781 154.175781c-3.125 3.125-8.1875 3.125-11.3125 0-3.117188-3.121094-3.117188-8.179688 0-11.304688zm-111.101562 167.664062-113.410157 113.410157-45.238281-45.25 113.398438-113.40625 5.65625 5.65625-14.792969 14.78125c-9.371094 9.375-9.371094 24.574218 0 33.945312 9.375 9.371094 24.566406 9.371094 33.9375 0l14.792969-14.792969zm25.457031-19.816406c5.261719 5.253906 8.21875 12.386719 8.21875 19.820313 0 7.4375-2.957031 14.566406-8.21875 19.820312l-119.042969 119.039062c-10.957031 10.929688-28.691406 10.929688-39.648438 0l-50.238281-50.246093c-11.273437-11.3125-11.273437-29.609375 0-40.921875l118.398438-118.398438c10.960937-10.925781 28.691406-10.925781 39.648437 0l8.472656 8.472656-11.328124 11.328126-8.488282-8.488282c-4.742187-4.554687-12.234375-4.554687-16.976562 0l-118.398438 118.398438c-5.050781 5.046875-5.050781 13.234375 0 18.28125l50.253906 50.253906c2.246094 2.265625 5.300782 3.539062 8.488282 3.539062s6.246094-1.273437 8.488281-3.539062l119.023437-119.03125c2.277344-2.246094 3.554688-5.308594 3.554688-8.503906 0-3.195313-1.277344-6.257813-3.554688-8.503906l-8.46875-8.472657 11.328126-11.328125zm237.839843-198.199219-118.242187 118.242188c-11.3125 11.277344-29.617187 11.277344-40.925781 0l-7.832032-7.832032 11.328126-11.328124 7.839843 7.847656c5.042969 5.035156 13.214844 5.035156 18.261719 0l118.25-118.265625c4.765625-4.78125 4.765625-12.519531 0-17.304688l-50.097656-50.09375c-5.113282-4.867187-13.148438-4.867187-18.265625 0l-117.75 117.765625c-5.050781 5.046875-5.050781 13.234375 0 18.28125l7.832031 7.832032-11.328125 11.328124-7.832031-7.839843c-11.273438-11.3125-11.273438-29.609375 0-40.921875l117.761718-117.757813c11.308594-11.28125 29.617188-11.28125 40.925782 0l50.082031 50.078125c11.015625 11.046875 11.011719 28.925782-.007813 39.96875zm0 0"/></svg>